<svg xmlns="http://www.w3.org/2000/svg" viewBox="0 0 742.9 742.9"><defs><style>.cls-1{fill:#fff;}.cls-1,.cls-2,.cls-3,.cls-4{stroke:#000;stroke-miterlimit:10;}.cls-1,.cls-4{stroke-width:6.3px;}.cls-2,.cls-4{fill:none;}.cls-2,.cls-3{stroke-width:3.15px;}</style></defs><title>Asset 2</title><g id="Layer_2" data-name="Layer 2"><g id="Layer_1-2" data-name="Layer 1"><circle class="cls-1" cx="371.45" cy="371.45" r="368.3"/><ellipse class="cls-2" cx="371.45" cy="683.81" rx="49.58" ry="26.56"/><path class="cls-3" d="M372.45,700c-24.4-.1-44.55-9.91-47.77-22.53a14.49,14.49,0,0,0-1.31,5.93c.06,14.26,21.67,25.9,48.28,26s48.11-11.35,48.06-25.6a14.06,14.06,0,0,0-.51-3.47C414.24,691.67,395.23,700.07,372.45,700Z"/><ellipse class="cls-2" cx="371.45" cy="58.92" rx="49.58" ry="26.56"/><path class="cls-3" d="M370.44,42.76c24.4.1,44.56,9.91,47.78,22.53a14.58,14.58,0,0,0,1.31-5.93c-.06-14.25-21.68-25.9-48.28-26S323.13,44.7,323.19,59a14.62,14.62,0,0,0,.5,3.48C328.66,51.06,347.66,42.66,370.44,42.76Z"/><ellipse class="cls-2" cx="683.82" cy="369.6" rx="26.56" ry="49.58"/><path class="cls-3" d="M700,368.6c-.1,24.4-9.91,44.55-22.53,47.77a14.49,14.49,0,0,0,5.93,1.31c14.26-.06,25.9-21.67,26-48.27s-11.35-48.12-25.6-48.06a14.05,14.05,0,0,0-3.47.5C691.68,326.81,700.08,345.82,700,368.6Z"/><ellipse class="cls-2" cx="58.9" cy="369.6" rx="49.58" ry="26.56" transform="translate(-311.35 424.31) rotate(-89.35)"/><path class="cls-3" d="M42.73,370.42C43.11,346,53.15,326,65.8,322.91a14.58,14.58,0,0,0-5.92-1.38c-14.25-.1-26.13,21.38-26.55,48s10.81,48.24,25.06,48.35a15,15,0,0,0,3.47-.46C50.56,412.3,42.37,393.2,42.73,370.42Z"/><ellipse class="cls-2" cx="590.39" cy="150.6" rx="26.56" ry="49.58" transform="translate(66.43 461.58) rotate(-45)"/><path class="cls-3" d="M601.11,138.46C618.29,155.78,625.6,177,619,188.18a14.6,14.6,0,0,0,5.12-3.28c10-10.11,3-33.63-15.75-52.52s-42.05-26-52.09-15.88a14.4,14.4,0,0,0-2.1,2.81C565.69,114.78,585.07,122.28,601.11,138.46Z"/><ellipse class="cls-2" cx="593.51" cy="591.42" rx="49.58" ry="26.56" transform="translate(-244.36 592.9) rotate(-45)"/><path class="cls-3" d="M605.65,602.13c-17.33,17.19-38.51,24.5-49.72,17.85a14.62,14.62,0,0,0,3.27,5.12c10.12,10,33.64,3,52.53-15.74s26-42.05,15.88-52.09a14.4,14.4,0,0,0-2.81-2.1C629.32,566.72,621.83,586.09,605.65,602.13Z"/><ellipse class="cls-2" cx="153.38" cy="587.61" rx="26.56" ry="49.58" transform="translate(-370.58 280.56) rotate(-45)"/><path class="cls-3" d="M142.67,599.74c-17.19-17.32-24.5-38.51-17.85-49.71a14.34,14.34,0,0,0-5.12,3.27c-10,10.12-3,33.63,15.74,52.52s42.05,26,52.09,15.88a14,14,0,0,0,2.1-2.8C178.08,623.42,158.71,615.92,142.67,599.74Z"/><ellipse class="cls-4" cx="518.66" cy="312.19" rx="29.9" ry="49.3" transform="translate(-77.89 209.27) rotate(-21.26)"/><ellipse class="cls-4" cx="429.8" cy="525.73" rx="48.89" ry="34.04" transform="translate(-161.36 191.58) rotate(-21.26)"/><ellipse class="cls-4" cx="216.03" cy="425.23" rx="34.49" ry="48.84" transform="translate(-139.46 107.24) rotate(-21.26)"/><ellipse class="cls-4" cx="304.26" cy="206.8" rx="44.99" ry="28.88" transform="translate(-54.27 124.37) rotate(-21.26)"/><ellipse class="cls-2" cx="149.46" cy="151.6" rx="49.58" ry="26.56" transform="translate(-63.42 150.09) rotate(-45)"/><path class="cls-3" d="M137.32,140.88C154.65,123.7,175.84,116.39,187,123a14.71,14.71,0,0,0-3.27-5.12c-10.12-10-33.64-3-52.53,15.75s-26,42.05-15.88,52.09a14.4,14.4,0,0,0,2.81,2.1C113.65,176.3,121.14,156.92,137.32,140.88Z"/><circle class="cls-4" cx="371.29" cy="369.69" r="39.35"/></g></g></svg>