<svg xmlns="http://www.w3.org/2000/svg" viewBox="0 0 292.89 406.72"><defs><style>.cls-1{font-size:88.27px;}.cls-1,.cls-4{font-family:BebasNeueCyrillic, Bebas Neue Cyrillic;}.cls-2{letter-spacing:0.03em;}.cls-3{letter-spacing:-0.03em;}.cls-4{font-size:23.44px;letter-spacing:0.02em;}.cls-5{fill:none;stroke:#000;stroke-miterlimit:10;stroke-width:0.91px;}</style></defs><title>Asset 2</title><g id="Layer_2" data-name="Layer 2"><g id="лого"><text class="cls-1" transform="translate(79.21 376.84)"><tspan class="cls-2">AL</tspan><tspan class="cls-3" x="70.44" y="0">F</tspan><tspan x="98.6" y="0">A</tspan></text><text class="cls-4" transform="translate(79.59 402.17) scale(1.13 1)">Flc since 2014</text><path id="Ромб" d="M142.37,2.18l-98.58,142a5,5,0,0,0,0,5.73l98.58,141.31a5.1,5.1,0,0,0,8.36,0l98.57-141.31a5,5,0,0,0,0-5.73l-98.57-142A5.1,5.1,0,0,0,142.37,2.18Zm-73,142,73-105.66a5.1,5.1,0,0,1,8.39,0l73,105.66a5,5,0,0,1,0,5.69l-73,106.29a5.11,5.11,0,0,1-8.41,0l-73-106.29A5,5,0,0,1,69.39,144.17Z"/><path id="А" d="M252.69,252.76l-91-167.27a1.78,1.78,0,0,1,.13-1.91l5.78-7.71a1.72,1.72,0,0,0-1.3-2.78H126.78a1.73,1.73,0,0,0-1.31,2.78l5.79,7.71a1.78,1.78,0,0,1,.13,1.91l-91,167.27a1.66,1.66,0,0,1-1.44.87H32.35a1.69,1.69,0,0,0-1.65,1.72v11.16a1.69,1.69,0,0,0,1.65,1.72H66a1.69,1.69,0,0,0,1.66-1.72V255.35A1.69,1.69,0,0,0,66,253.63h0a1.73,1.73,0,0,1-1.45-2.55L103.08,178a1.64,1.64,0,0,1,1.45-.89h84A1.65,1.65,0,0,1,190,178l38.54,73.12a1.72,1.72,0,0,1-1.44,2.55h0a1.69,1.69,0,0,0-1.65,1.72v11.16a1.69,1.69,0,0,0,1.65,1.72h33.64a1.69,1.69,0,0,0,1.65-1.72V255.35a1.69,1.69,0,0,0-1.65-1.72h-6.62A1.66,1.66,0,0,1,252.69,252.76ZM147.14,155.35H117.29a1.72,1.72,0,0,1-1.45-2.55L145.1,97.26a1.62,1.62,0,0,1,2.9,0l29.26,55.54a1.72,1.72,0,0,1-1.45,2.55Z"/><g id="ракетка"><path id="контур_ракетки" data-name="контур ракетки" d="M72.11,294.05l-2.3-15.61-2.51-.64c-.28,0-3.46-.29-4.91.46l-.58.32a48.94,48.94,0,0,1-24.37,6.28c-5.71.06-10.16-1.16-14.48-2.34-4.53-1.23-8.81-2.4-14.06-1.94a9.17,9.17,0,0,0-8,5.73A12.81,12.81,0,0,0,3.09,299.2c3.12,3.78,16.8,7.68,28.71,8.18,15.79.68,30.17-4.29,38.36-9.16a1.46,1.46,0,0,0,.59-.66L72,294.71A1.25,1.25,0,0,0,72.11,294.05Zm-6,.23c-7.77,11.4-37.19,16.18-59.17,5.3-2.74-1.36-4.89-5.28-4.88-8.94a8,8,0,0,1,4.71-7.44c3.46-1.7,7.64-.61,12.93.77a79.42,79.42,0,0,0,12.69,2.52c9.87,1,19.8-1.67,25.13-3.11a27,27,0,0,1,3.29-.78h.31a4.13,4.13,0,0,1,4,3.27C66.6,292.84,66.24,294.07,66.1,294.28Z"/><g id="сітка"><line class="cls-5" x1="27.16" y1="285.17" x2="23.49" y2="305.81"/><line class="cls-5" x1="49.71" y1="284.06" x2="58.65" y2="301.32"/><line class="cls-5" x1="13.09" y1="281.57" x2="4.97" y2="299.53"/><line class="cls-5" x1="20.34" y1="283.48" x2="13.64" y2="303.01"/><line class="cls-5" x1="34.81" y1="285.77" x2="34.81" y2="306.68"/><line class="cls-5" x1="42.15" y1="285.9" x2="46.04" y2="305.38"/><line class="cls-5" x1="1.94" y1="294.01" x2="48.07" y2="305.14"/><line class="cls-5" x1="1.69" y1="288.18" x2="58.52" y2="301.88"/><line class="cls-5" x1="5.3" y1="283.48" x2="65.19" y2="297.93"/><line class="cls-5" x1="35.93" y1="286.13" x2="68.04" y2="293.87"/><line class="cls-5" x1="53.25" y1="283.87" x2="67.31" y2="287.26"/></g><path id="ручка" d="M225.82,40.59a4.07,4.07,0,0,0-7.68-1.89h0L132.56,171.38a1.08,1.08,0,0,0-.08.19l-.45,1.81a.7.7,0,0,1-.08.2L74.46,263.2a4,4,0,0,0-2.86,1.73L44.82,305.14s9.52-1.35,11.86-3.63l21.57-32.13a4,4,0,0,0,.49-3.41l58.17-89.19a.39.39,0,0,1,.11-.15l1.41-1.18a.86.86,0,0,0,.13-.14L225.08,42.92l.08-.12.06-.09h0A4,4,0,0,0,225.82,40.59Z"/></g><g id="ракетка-2" data-name="ракетка"><path id="контур_ракетки-2" data-name="контур ракетки" d="M220.88,294.71l1.26,2.85a1.42,1.42,0,0,0,.6.66c8.19,4.87,22.56,9.84,38.35,9.16,11.91-.5,25.59-4.4,28.71-8.18A12.81,12.81,0,0,0,292,286.31a9.16,9.16,0,0,0-8-5.73c-5.24-.46-9.52.71-14.06,1.94-4.32,1.18-8.76,2.4-14.48,2.34a49,49,0,0,1-24.37-6.28l-.57-.32c-1.46-.75-4.63-.49-4.92-.46l-2.5.64-2.31,15.61A1.17,1.17,0,0,0,220.88,294.71Zm6.86-8.85a4.13,4.13,0,0,1,4-3.27h.31a27,27,0,0,1,3.3.78c5.33,1.44,15.25,4.11,25.13,3.11A79.42,79.42,0,0,0,273.21,284c5.29-1.38,9.46-2.47,12.92-.77a8,8,0,0,1,4.72,7.44c0,3.66-2.14,7.58-4.89,8.94-22,10.88-51.4,6.1-59.17-5.3C226.65,294.07,226.29,292.84,227.74,285.86Z"/><g id="сітка-2" data-name="сітка"><line class="cls-5" x1="265.73" y1="285.17" x2="269.4" y2="305.81"/><line class="cls-5" x1="243.18" y1="284.06" x2="234.24" y2="301.32"/><line class="cls-5" x1="279.81" y1="281.57" x2="287.93" y2="299.53"/><line class="cls-5" x1="272.56" y1="283.48" x2="279.25" y2="303.01"/><line class="cls-5" x1="258.09" y1="285.77" x2="258.09" y2="306.68"/><line class="cls-5" x1="250.74" y1="285.9" x2="246.86" y2="305.38"/><line class="cls-5" x1="290.96" y1="294.01" x2="244.83" y2="305.14"/><line class="cls-5" x1="291.2" y1="288.18" x2="234.37" y2="301.88"/><line class="cls-5" x1="287.59" y1="283.48" x2="227.7" y2="297.93"/><line class="cls-5" x1="256.97" y1="286.13" x2="224.85" y2="293.87"/><line class="cls-5" x1="239.64" y1="283.87" x2="225.58" y2="287.26"/></g><path id="ручка-2" data-name="ручка" d="M67.07,40.59a4.07,4.07,0,0,1,7.68-1.89h0l85.57,132.69a.46.46,0,0,1,.08.19l.45,1.81a.72.72,0,0,0,.09.2l57.49,89.62a4,4,0,0,1,2.85,1.73l26.78,40.21s-9.52-1.35-11.85-3.63l-21.58-32.13a4,4,0,0,1-.48-3.41L156,176.78c0-.06-.06-.1-.11-.15l-1.41-1.18a.53.53,0,0,1-.12-.14L67.81,42.92l-.08-.12-.06-.09h0A4,4,0,0,1,67.07,40.59Z"/></g></g></g></svg>